<svg id="svg" version="1.1" xmlns="http://www.w3.org/2000/svg" xmlns:xlink="http://www.w3.org/1999/xlink" width="400" height="400" viewBox="0, 0, 400,400"><g id="svgg"><path id="path0" d="M191.025 70.951 C 190.794 71.181,189.322 71.366,186.852 71.475 C 184.088 71.597,183.710 73.370,183.705 86.229 L 183.704 89.680 185.463 89.485 C 196.174 88.301,206.798 88.283,215.556 89.434 C 220.556 90.091,220.467 90.086,220.229 89.700 C 220.127 89.536,220.012 85.469,219.974 80.663 C 219.935 75.857,219.765 71.700,219.595 71.425 C 219.258 70.880,191.556 70.419,191.025 70.951 M143.704 84.913 C 139.536 87.266,132.044 92.060,127.778 95.103 C 126.861 95.757,125.331 96.835,124.378 97.498 C 121.828 99.273,116.719 103.472,116.691 103.817 C 116.630 104.560,126.410 117.593,127.028 117.593 C 127.207 117.593,129.165 116.093,131.378 114.259 C 133.592 112.426,135.879 110.593,136.461 110.185 C 137.044 109.778,137.828 109.153,138.205 108.796 C 138.581 108.440,138.966 108.148,139.061 108.148 C 139.156 108.148,140.671 107.212,142.427 106.067 C 145.825 103.852,150.416 101.288,153.616 99.820 C 154.688 99.328,155.662 98.672,155.781 98.363 C 156.007 97.772,154.700 95.794,154.328 96.166 C 154.210 96.284,154.137 96.070,154.164 95.690 C 154.224 94.876,147.393 83.343,146.852 83.345 C 146.648 83.345,145.231 84.051,143.704 84.913 M254.764 86.785 C 253.703 88.655,252.385 90.852,251.835 91.667 C 248.050 97.275,247.095 99.585,248.542 99.624 C 250.415 99.675,264.477 108.586,271.479 114.159 C 276.381 118.061,277.407 118.663,277.407 117.639 C 277.407 117.359,278.004 116.484,278.734 115.695 C 279.464 114.905,280.315 113.774,280.626 113.181 C 280.937 112.588,282.224 110.792,283.484 109.190 C 285.919 106.097,287.421 103.793,286.720 104.226 C 286.454 104.390,286.296 104.204,286.296 103.726 C 286.296 103.295,286.055 102.963,285.741 102.963 C 285.435 102.963,285.185 102.810,285.185 102.624 C 285.185 102.438,284.310 101.652,283.241 100.877 C 282.171 100.103,281.213 99.362,281.111 99.232 C 281.009 99.101,279.168 97.820,277.019 96.384 C 274.870 94.949,272.892 93.508,272.622 93.183 C 272.352 92.858,271.914 92.593,271.648 92.593 C 271.382 92.593,270.944 92.376,270.675 92.112 C 270.107 91.554,263.925 87.636,259.642 85.118 L 256.693 83.385 254.764 86.785 M188.333 95.183 C 176.925 96.550,165.295 99.543,159.769 102.533 C 159.387 102.740,157.157 103.851,154.815 105.001 C 149.861 107.433,149.089 107.855,146.183 109.722 C 144.994 110.486,143.938 111.111,143.835 111.111 C 143.593 111.111,138.024 114.954,136.111 116.441 C 129.678 121.443,120.474 130.380,120.955 131.158 C 121.119 131.424,121.067 131.498,120.822 131.347 C 120.592 131.204,119.282 132.448,117.762 134.252 C 116.301 135.988,115.066 137.407,115.018 137.407 C 114.969 137.407,114.446 136.991,113.854 136.482 C 113.262 135.973,112.651 135.556,112.496 135.556 C 112.228 135.556,110.495 134.474,104.352 130.474 C 98.098 126.401,97.733 126.222,97.162 126.942 C 95.317 129.267,93.707 131.928,93.928 132.286 C 94.084 132.538,94.024 132.605,93.779 132.454 C 92.799 131.848,81.205 153.661,81.551 155.459 C 81.623 155.832,84.552 157.630,88.919 159.983 C 98.842 165.330,99.455 165.702,99.368 166.315 C 99.326 166.610,98.354 170.102,97.208 174.074 C 96.062 178.046,94.889 182.153,94.601 183.199 L 94.077 185.102 83.548 185.240 C 77.756 185.315,72.904 185.491,72.764 185.631 C 71.773 186.622,71.766 219.297,72.757 220.287 C 72.892 220.423,77.860 220.585,83.797 220.649 C 89.735 220.713,94.650 220.823,94.720 220.893 C 94.791 220.963,95.165 222.583,95.553 224.492 C 95.940 226.401,96.954 230.546,97.804 233.704 C 98.655 236.861,99.426 239.861,99.516 240.370 C 99.672 241.244,99.172 241.556,90.589 245.926 C 85.589 248.472,81.494 250.668,81.489 250.805 C 81.440 252.394,97.052 280.741,97.977 280.741 C 98.174 280.741,101.278 278.887,103.889 277.210 C 108.052 274.535,114.936 270.710,115.390 270.818 C 115.640 270.877,117.129 272.509,118.700 274.444 C 145.210 307.102,185.193 321.109,225.370 311.813 C 241.894 307.990,260.747 298.319,271.503 288.148 C 271.826 287.843,272.662 287.075,273.360 286.442 C 275.355 284.635,281.497 278.144,283.323 275.912 C 284.234 274.800,285.525 273.310,286.193 272.603 C 286.861 271.896,287.407 271.188,287.407 271.029 C 287.407 270.268,292.379 272.944,302.037 278.904 C 305.648 281.132,305.255 281.141,306.784 278.796 C 309.069 275.291,310.741 272.582,310.741 272.382 C 310.741 272.275,311.292 271.320,311.966 270.260 C 314.746 265.890,321.481 252.188,321.481 250.902 C 321.481 250.471,320.935 250.112,320.227 250.079 C 320.046 250.070,319.796 249.913,319.671 249.728 C 319.546 249.544,317.611 248.419,315.370 247.227 C 313.130 246.036,310.640 244.650,309.837 244.148 C 309.034 243.646,307.534 242.770,306.504 242.203 C 304.130 240.895,304.114 240.739,305.786 234.957 C 306.545 232.333,307.511 228.102,307.935 225.556 L 308.704 220.926 319.877 220.741 C 326.022 220.639,331.173 220.433,331.322 220.283 C 332.603 219.000,332.369 187.256,331.068 185.688 C 330.733 185.285,328.489 185.185,319.796 185.185 L 308.943 185.185 308.475 182.315 C 308.130 180.203,307.946 179.689,307.777 180.370 C 307.526 181.384,307.552 181.453,306.868 177.914 L 306.662 176.852 307.203 177.963 C 307.866 179.324,307.909 178.997,307.356 176.800 C 307.102 175.794,306.824 175.302,306.658 175.569 C 306.337 176.089,305.458 173.722,305.591 172.696 C 305.749 171.474,305.116 169.144,304.772 169.686 C 304.419 170.244,304.439 170.335,304.231 167.299 C 304.122 165.716,304.207 165.479,305.017 165.110 C 305.517 164.882,305.926 164.538,305.926 164.345 C 305.926 164.153,306.172 164.089,306.472 164.204 C 306.773 164.320,307.183 164.130,307.386 163.781 C 307.589 163.433,307.760 163.292,307.767 163.469 C 307.773 163.645,308.178 163.527,308.667 163.206 C 309.156 162.886,312.240 161.186,315.519 159.430 C 319.544 157.274,321.483 156.035,321.487 155.618 C 321.492 155.084,321.541 155.075,321.852 155.556 C 322.058 155.874,322.213 155.927,322.217 155.678 C 322.227 154.889,321.779 154.075,321.447 154.281 C 321.267 154.392,321.229 154.197,321.363 153.847 C 321.528 153.419,321.467 153.298,321.178 153.477 C 320.889 153.656,320.829 153.535,320.993 153.107 C 321.157 152.678,321.097 152.558,320.808 152.736 C 320.541 152.901,320.452 152.812,320.571 152.501 C 320.676 152.226,320.249 150.926,319.620 149.612 C 318.992 148.297,318.571 147.556,318.684 147.963 C 318.888 148.693,318.883 148.693,318.334 147.985 C 317.699 147.164,317.595 146.510,318.154 146.856 C 318.362 146.984,318.251 146.501,317.908 145.782 C 317.566 145.064,317.179 144.542,317.050 144.622 C 316.921 144.701,316.588 144.403,316.311 143.958 C 315.840 143.201,315.850 143.184,316.471 143.697 C 317.727 144.736,312.773 135.814,307.787 128.060 L 306.183 125.565 304.851 126.362 C 304.118 126.801,303.255 127.382,302.934 127.654 C 302.612 127.926,302.228 128.148,302.079 128.148 C 301.931 128.148,300.777 128.863,299.516 129.737 C 298.254 130.611,295.556 132.367,293.519 133.638 C 291.481 134.910,289.343 136.320,288.767 136.771 C 287.725 137.589,287.718 137.589,287.178 136.852 C 286.881 136.444,286.352 135.777,286.004 135.370 C 285.655 134.962,284.100 133.128,282.548 131.295 C 278.504 126.521,268.439 117.060,266.667 116.369 C 266.361 116.249,265.611 115.684,265.000 115.112 C 264.389 114.540,263.597 113.978,263.241 113.863 C 262.884 113.748,262.593 113.498,262.593 113.308 C 262.593 113.118,262.431 112.963,262.234 112.963 C 262.036 112.963,260.598 112.130,259.038 111.111 C 257.478 110.093,255.987 109.259,255.724 109.259 C 255.462 109.259,255.191 109.131,255.123 108.975 C 254.694 107.986,246.302 103.746,240.370 101.521 C 238.639 100.871,236.889 100.197,236.481 100.022 C 226.587 95.779,203.078 93.416,188.333 95.183 M208.148 122.596 C 234.845 124.898,257.927 140.115,271.794 164.555 C 281.855 182.287,284.371 203.205,279.031 224.724 C 277.122 232.415,275.057 237.545,270.988 244.709 C 269.172 247.906,268.989 248.359,269.687 247.928 C 269.954 247.763,270.014 247.826,269.846 248.097 C 269.699 248.335,269.445 248.448,269.281 248.347 C 269.118 248.246,268.355 249.118,267.586 250.285 C 263.765 256.089,254.327 266.406,250.265 269.221 C 249.814 269.533,249.278 269.921,249.074 270.083 C 240.842 276.618,229.093 282.230,218.333 284.766 C 216.500 285.198,214.289 285.719,213.421 285.924 C 212.552 286.129,211.334 286.296,210.714 286.296 C 210.093 286.296,209.678 286.445,209.791 286.628 C 210.171 287.243,209.043 287.334,202.380 287.232 C 194.341 287.108,195.222 287.243,182.778 284.226 C 176.083 282.603,167.913 279.315,162.407 276.027 C 160.190 274.703,156.826 272.425,155.723 271.501 C 155.103 270.981,154.126 270.222,153.553 269.815 C 146.214 264.596,135.708 251.773,131.324 242.682 C 130.524 241.023,129.734 239.750,129.569 239.852 C 129.403 239.955,129.349 239.821,129.448 239.556 C 129.675 238.950,126.881 232.131,126.544 232.468 C 126.292 232.721,126.265 232.619,126.122 230.833 C 126.077 230.273,125.602 228.148,125.067 226.111 C 120.574 209.024,121.570 189.370,127.695 174.259 C 128.603 172.019,129.355 169.977,129.365 169.722 C 129.375 169.468,129.488 169.259,129.617 169.259 C 129.746 169.259,130.049 168.713,130.290 168.046 C 130.531 167.379,131.815 164.930,133.142 162.603 C 134.469 160.277,135.556 158.240,135.556 158.076 C 135.556 157.912,135.681 157.777,135.833 157.777 C 135.986 157.777,136.694 156.909,137.407 155.848 C 142.634 148.075,150.024 140.911,158.889 135.026 C 161.231 133.470,163.395 131.995,163.696 131.747 C 163.998 131.499,164.373 131.338,164.530 131.389 C 164.686 131.440,164.815 131.315,164.815 131.111 C 164.815 130.907,165.150 130.741,165.561 130.741 C 165.971 130.741,166.596 130.576,166.949 130.374 C 172.398 127.266,182.056 124.279,190.185 123.188 C 197.926 122.148,201.567 122.028,208.148 122.596 M196.852 173.210 C 192.755 174.103,185.769 176.853,186.127 177.432 C 186.351 177.796,185.822 178.141,184.724 178.346 C 183.627 178.552,178.391 183.938,178.740 184.503 C 178.900 184.761,178.841 184.829,178.590 184.674 C 178.017 184.319,176.520 186.690,174.838 190.616 C 167.448 207.866,176.983 226.965,194.788 230.572 C 226.269 236.951,244.508 197.664,219.067 178.274 C 213.874 174.317,203.073 171.855,196.852 173.210 M204.630 186.115 C 222.018 189.782,223.260 212.902,206.350 218.157 C 198.416 220.623,186.350 214.196,186.300 207.478 C 186.298 207.211,186.165 207.075,186.004 207.174 C 185.031 207.775,185.237 198.283,186.243 196.142 C 186.680 195.213,187.037 194.284,187.037 194.078 C 187.037 193.872,187.162 193.699,187.315 193.694 C 187.468 193.688,188.000 193.024,188.498 192.217 C 191.386 187.534,198.535 184.830,204.630 186.115 M237.262 196.512 C 237.138 196.834,237.037 198.266,237.037 199.694 C 237.037 204.486,235.370 211.157,232.999 215.854 C 231.961 217.910,229.120 221.806,227.130 223.904 C 226.393 224.680,226.487 224.834,230.093 228.770 C 231.977 230.828,234.906 234.029,236.601 235.885 L 239.683 239.259 249.008 239.254 C 254.909 239.250,258.133 239.121,257.788 238.903 C 257.113 238.476,258.178 237.938,259.043 238.270 C 259.381 238.400,259.782 238.019,260.173 237.196 C 261.124 235.191,260.874 198.415,259.899 196.928 L 259.242 195.926 248.364 195.926 C 238.787 195.926,237.460 195.996,237.262 196.512 M143.444 198.379 C 142.093 199.045,140.955 200.559,141.338 201.179 C 141.486 201.419,141.431 201.494,141.207 201.356 C 140.192 200.728,140.045 205.458,141.019 207.405 C 142.273 209.912,147.629 211.523,149.325 209.903 C 149.595 209.646,150.247 209.245,150.775 209.012 C 151.993 208.474,152.963 206.449,152.963 204.444 C 152.963 202.723,151.970 200.253,151.416 200.596 C 151.221 200.716,151.114 200.517,151.179 200.152 C 151.500 198.338,146.057 197.091,143.444 198.379 M154.064 233.901 C 153.805 234.213,152.826 234.838,151.889 235.290 C 148.672 236.840,146.238 238.627,146.416 239.308 C 146.607 240.037,149.689 245.284,150.739 246.667 L 151.442 247.593 152.851 246.852 C 156.343 245.016,160.212 242.865,160.489 242.604 C 160.656 242.447,160.198 241.388,159.471 240.251 C 158.743 239.114,158.148 238.073,158.148 237.937 C 158.148 237.307,155.447 233.333,155.019 233.333 C 154.753 233.333,154.323 233.589,154.064 233.901 M170.176 255.332 C 166.592 256.893,168.232 262.593,172.265 262.593 C 174.047 262.593,175.938 260.926,175.900 259.388 C 175.871 258.218,175.259 256.472,175.206 257.407 C 175.177 257.901,175.134 257.901,174.815 257.407 C 174.315 256.633,174.357 256.208,174.907 256.490 C 175.162 256.620,174.903 256.296,174.331 255.771 C 173.182 254.714,171.905 254.579,170.176 255.332 M179.706 263.914 C 179.250 264.234,178.975 264.655,179.095 264.849 C 179.216 265.044,179.094 265.158,178.824 265.102 C 178.553 265.045,178.356 265.288,178.384 265.644 C 178.412 265.998,178.287 266.197,178.106 266.085 C 177.423 265.663,177.814 268.092,178.623 269.292 C 179.822 271.072,183.570 271.885,183.239 270.293 C 183.189 270.054,183.481 269.793,183.889 269.713 C 185.428 269.410,186.316 266.195,185.000 265.689 C 184.694 265.572,184.444 265.256,184.444 264.988 C 184.444 263.708,181.086 262.947,179.706 263.914 M274.611 292.146 C 273.399 293.123,272.074 294.193,271.667 294.524 C 267.570 297.854,266.283 298.815,265.072 299.448 C 264.297 299.854,263.310 300.560,262.878 301.019 C 262.446 301.477,261.963 301.852,261.804 301.852 C 261.644 301.852,260.632 302.380,259.553 303.025 C 258.475 303.671,257.009 304.509,256.296 304.887 C 249.337 308.581,247.802 309.744,248.649 310.681 C 248.985 311.051,249.259 311.465,249.259 311.600 C 249.259 311.734,249.993 312.916,250.889 314.225 C 251.786 315.535,253.101 317.661,253.812 318.951 C 256.032 322.978,256.474 323.699,256.725 323.701 C 257.593 323.710,269.237 316.714,273.148 313.835 C 274.370 312.935,277.204 310.858,279.444 309.219 C 284.669 305.397,287.163 303.006,286.614 302.344 C 286.393 302.078,286.053 301.958,285.859 302.078 C 285.665 302.198,285.555 302.071,285.615 301.796 C 285.726 301.282,284.454 298.889,284.069 298.889 C 283.950 298.889,282.945 297.620,281.834 296.068 C 280.056 293.585,277.295 290.370,276.941 290.370 C 276.871 290.370,275.823 291.170,274.611 292.146 M121.976 296.471 C 115.359 304.635,115.250 303.435,123.148 309.320 C 125.593 311.141,127.926 312.907,128.333 313.243 C 132.580 316.752,146.939 324.773,147.284 323.829 C 147.421 323.454,148.092 322.264,148.775 321.183 C 149.459 320.102,149.921 319.060,149.802 318.868 C 149.683 318.676,149.747 318.519,149.943 318.519 C 150.139 318.519,150.774 317.749,151.354 316.809 C 151.933 315.869,152.576 314.827,152.782 314.494 C 155.330 310.384,155.599 309.259,154.034 309.259 C 153.649 309.259,153.333 309.113,153.333 308.934 C 153.333 308.568,151.093 307.548,150.621 307.699 C 150.453 307.752,150.409 307.644,150.524 307.459 C 150.701 307.172,148.325 305.802,144.144 303.777 C 143.596 303.512,142.898 303.136,142.593 302.943 C 142.287 302.749,141.658 302.427,141.194 302.227 C 140.731 302.027,140.258 301.619,140.143 301.320 C 140.028 301.021,139.375 300.592,138.691 300.366 C 137.868 300.095,137.515 299.781,137.646 299.438 C 137.775 299.104,137.504 298.834,136.886 298.679 C 136.358 298.547,135.926 298.206,135.926 297.923 C 135.926 297.639,135.736 297.407,135.504 297.407 C 135.272 297.407,134.868 297.116,134.608 296.759 C 134.347 296.403,133.995 296.110,133.826 296.109 C 133.533 296.106,133.054 295.707,129.499 292.505 C 127.072 290.319,126.880 290.420,121.976 296.471 M183.914 327.470 C 184.038 332.223,184.265 336.244,184.419 336.405 C 185.423 337.458,212.607 337.642,217.518 336.630 L 219.666 336.187 219.615 333.742 C 219.587 332.397,219.689 328.483,219.842 325.044 L 220.119 318.792 216.448 319.065 C 214.430 319.215,212.519 319.475,212.203 319.643 C 211.355 320.092,192.334 320.148,190.370 319.707 C 189.454 319.501,187.576 319.219,186.197 319.080 L 183.691 318.829 183.914 327.470 " stroke="none" fill="#fb7704" fill-rule="evenodd"></path><path id="path1" d="M169.144 133.761 C 168.314 134.225,169.241 140.935,170.947 146.813 L 171.474 148.626 164.670 155.473 L 157.867 162.320 154.615 161.674 C 150.905 160.938,141.833 160.982,141.075 161.740 C 139.734 163.081,148.712 173.119,153.095 175.179 C 156.725 176.884,162.437 177.101,167.097 175.710 C 167.529 175.581,168.340 176.331,169.818 178.226 C 171.590 180.498,174.870 183.704,175.422 183.704 C 175.509 183.704,177.449 181.815,179.734 179.506 C 183.406 175.796,184.276 175.121,187.222 173.699 C 191.932 171.424,191.774 171.732,189.536 169.169 C 187.844 167.233,186.216 165.287,183.569 162.038 C 182.893 161.210,182.895 161.142,183.628 159.021 C 186.736 150.039,184.644 142.742,177.393 137.268 C 173.914 134.641,170.309 133.109,169.144 133.761 M215.198 145.902 C 214.565 147.085,214.702 162.447,215.365 164.682 C 216.281 167.767,218.487 170.669,225.055 177.433 C 228.503 180.984,232.318 184.954,233.533 186.257 C 237.190 190.179,239.554 190.683,252.003 190.191 C 260.640 189.851,260.097 190.261,259.936 184.190 C 259.787 178.539,260.291 178.902,252.567 178.895 L 246.430 178.889 243.308 175.640 C 240.328 172.540,236.685 168.570,230.182 161.338 L 227.222 158.047 227.037 151.972 C 226.889 147.119,226.740 145.827,226.296 145.547 C 225.115 144.802,215.624 145.106,215.198 145.902 M192.630 257.315 C 192.654 271.596,192.817 282.309,193.014 282.681 C 193.931 284.412,201.107 285.410,207.182 284.651 C 210.653 284.217,210.370 286.556,210.370 258.295 C 210.370 230.379,210.595 232.459,207.677 233.361 C 204.987 234.192,197.582 233.969,194.030 232.950 C 193.344 232.754,192.739 232.593,192.685 232.593 C 192.631 232.593,192.607 243.718,192.630 257.315 " stroke="none" fill="#fbfbfb" fill-rule="evenodd"></path><path id="path2" d="M227.181 152.778 C 227.182 155.426,227.241 156.461,227.312 155.077 C 227.383 153.694,227.383 151.527,227.311 150.262 C 227.239 148.998,227.180 150.130,227.181 152.778 M165.556 154.259 C 164.656 155.176,164.003 155.926,164.105 155.926 C 164.207 155.926,165.026 155.176,165.926 154.259 C 166.826 153.343,167.478 152.593,167.376 152.593 C 167.275 152.593,166.455 153.343,165.556 154.259 M147.500 160.996 C 147.856 161.089,148.440 161.089,148.796 160.996 C 149.153 160.903,148.861 160.827,148.148 160.827 C 147.435 160.827,147.144 160.903,147.500 160.996 M159.171 176.929 C 159.632 177.017,160.298 177.014,160.652 176.921 C 161.007 176.828,160.630 176.756,159.815 176.760 C 159.000 176.764,158.710 176.840,159.171 176.929 M228.333 181.111 C 230.158 182.944,231.735 184.444,231.836 184.444 C 231.938 184.444,230.529 182.944,228.704 181.111 C 226.879 179.278,225.302 177.778,225.201 177.778 C 225.099 177.778,226.508 179.278,228.333 181.111 M253.621 190.272 C 254.492 190.350,255.825 190.349,256.584 190.269 C 257.342 190.190,256.630 190.126,255.000 190.127 C 253.370 190.128,252.750 190.193,253.621 190.272 M209.722 232.993 C 210.251 233.301,210.384 233.965,210.444 236.592 L 210.518 239.815 210.647 237.041 C 210.803 233.696,210.571 232.589,209.715 232.604 C 209.112 232.614,209.112 232.637,209.722 232.993 M202.593 233.704 L 199.444 233.936 202.593 233.999 C 204.324 234.034,205.991 233.901,206.296 233.704 C 206.790 233.385,206.790 233.352,206.296 233.408 C 205.991 233.443,204.324 233.576,202.593 233.704 M192.707 267.222 C 192.709 268.444,192.779 268.900,192.861 268.234 C 192.943 267.568,192.942 266.568,192.857 266.012 C 192.773 265.455,192.705 266.000,192.707 267.222 M193.652 283.682 C 194.133 284.101,194.702 284.444,194.918 284.444 C 195.373 284.444,195.351 284.426,193.889 283.570 L 192.778 282.919 193.652 283.682 M200.847 285.089 C 202.026 285.163,203.859 285.162,204.921 285.087 C 205.983 285.013,205.019 284.953,202.778 284.953 C 200.537 284.954,199.668 285.015,200.847 285.089 " stroke="none" fill="#f1ecf0" fill-rule="evenodd"></path><path id="path3" d="M317.778 146.944 C 317.778 147.121,318.019 147.589,318.315 147.985 C 318.833 148.678,318.845 148.674,318.641 147.865 C 318.430 147.029,317.778 146.333,317.778 146.944 M304.126 168.148 C 304.126 168.454,304.269 169.037,304.444 169.444 C 304.645 169.911,304.763 169.980,304.763 169.630 C 304.763 169.324,304.620 168.741,304.444 168.333 C 304.244 167.866,304.126 167.798,304.126 168.148 M305.600 172.963 C 305.594 173.472,305.818 174.389,306.098 175.000 C 306.789 176.510,306.800 175.123,306.111 173.333 C 305.673 172.196,305.611 172.151,305.600 172.963 M306.704 177.222 C 306.691 177.426,306.913 178.426,307.196 179.444 C 307.615 180.949,307.715 181.088,307.728 180.185 C 307.743 179.184,306.759 176.337,306.704 177.222 M257.593 238.519 C 257.301 238.990,258.159 238.990,258.889 238.519 C 259.341 238.227,259.293 238.158,258.633 238.154 C 258.187 238.151,257.718 238.315,257.593 238.519 M183.148 270.000 C 183.022 270.204,183.169 270.370,183.475 270.370 C 183.780 270.370,184.133 270.204,184.259 270.000 C 184.385 269.796,184.238 269.630,183.933 269.630 C 183.627 269.630,183.274 269.796,183.148 270.000 " stroke="none" fill="#fc8c06" fill-rule="evenodd"></path><path id="path4" d="M199.371 70.647 C 201.368 70.713,204.534 70.713,206.408 70.646 C 208.282 70.579,206.648 70.524,202.778 70.525 C 198.907 70.525,197.374 70.580,199.371 70.647 M188.889 70.883 C 188.889 71.197,190.772 71.360,190.957 71.061 C 191.066 70.885,190.645 70.741,190.022 70.741 C 189.399 70.741,188.889 70.805,188.889 70.883 M185.926 71.253 C 185.926 71.590,187.370 71.733,187.829 71.442 C 188.172 71.225,187.948 71.121,187.130 71.117 C 186.468 71.114,185.926 71.175,185.926 71.253 M183.831 76.481 C 183.832 78.111,183.897 78.732,183.975 77.861 C 184.054 76.989,184.053 75.656,183.973 74.898 C 183.893 74.139,183.829 74.852,183.831 76.481 M183.484 87.563 C 183.509 89.178,183.665 89.796,184.074 89.906 C 184.462 90.011,184.496 89.961,184.189 89.742 C 183.947 89.570,183.681 88.515,183.599 87.399 L 183.449 85.370 183.484 87.563 M220.115 87.593 C 220.117 88.815,220.186 89.270,220.268 88.604 C 220.351 87.939,220.349 86.939,220.265 86.382 C 220.180 85.826,220.113 86.370,220.115 87.593 M195.102 88.790 C 195.974 88.868,197.307 88.867,198.065 88.788 C 198.824 88.708,198.111 88.644,196.481 88.645 C 194.852 88.647,194.231 88.712,195.102 88.790 M203.796 88.788 C 204.560 88.868,205.810 88.868,206.574 88.788 C 207.338 88.708,206.713 88.643,205.185 88.643 C 203.657 88.643,203.032 88.708,203.796 88.788 M273.583 93.966 C 274.230 94.535,275.313 95.315,275.990 95.701 C 277.664 96.653,276.920 95.983,274.444 94.309 C 272.972 93.313,272.733 93.218,273.583 93.966 M198.796 94.347 C 199.866 94.422,201.616 94.422,202.685 94.347 C 203.755 94.272,202.880 94.211,200.741 94.211 C 198.602 94.211,197.727 94.272,198.796 94.347 M192.134 94.706 C 192.595 94.795,193.261 94.792,193.615 94.699 C 193.970 94.606,193.593 94.534,192.778 94.538 C 191.963 94.542,191.673 94.618,192.134 94.706 M208.062 94.713 C 208.728 94.795,209.728 94.794,210.284 94.709 C 210.841 94.625,210.296 94.557,209.074 94.559 C 207.852 94.561,207.397 94.630,208.062 94.713 M188.611 95.070 C 188.968 95.163,189.551 95.163,189.907 95.070 C 190.264 94.977,189.972 94.901,189.259 94.901 C 188.546 94.901,188.255 94.977,188.611 95.070 M185.648 95.440 C 186.005 95.534,186.588 95.534,186.944 95.440 C 187.301 95.347,187.009 95.271,186.296 95.271 C 185.583 95.271,185.292 95.347,185.648 95.440 M271.481 120.116 C 271.481 120.180,272.023 120.721,272.685 121.320 L 273.889 122.407 272.801 121.204 C 271.787 120.082,271.481 119.830,271.481 120.116 M197.685 122.484 C 198.144 122.572,198.894 122.572,199.352 122.484 C 199.810 122.395,199.435 122.323,198.519 122.323 C 197.602 122.323,197.227 122.395,197.685 122.484 M203.241 122.484 C 203.699 122.572,204.449 122.572,204.907 122.484 C 205.366 122.395,204.991 122.323,204.074 122.323 C 203.157 122.323,202.782 122.395,203.241 122.484 M277.778 126.111 C 278.884 127.231,279.873 128.148,279.975 128.148 C 280.077 128.148,279.255 127.231,278.148 126.111 C 277.042 124.991,276.053 124.074,275.951 124.074 C 275.849 124.074,276.671 124.991,277.778 126.111 M200.648 172.861 C 201.310 172.943,202.394 172.943,203.056 172.861 C 203.718 172.778,203.176 172.711,201.852 172.711 C 200.528 172.711,199.986 172.778,200.648 172.861 M184.804 177.796 L 183.889 178.498 184.788 178.332 C 185.831 178.139,186.505 177.580,186.040 177.293 C 185.864 177.184,185.308 177.411,184.804 177.796 M181.643 180.463 L 180.556 181.667 181.759 180.579 C 182.881 179.565,183.133 179.259,182.847 179.259 C 182.783 179.259,182.242 179.801,181.643 180.463 M73.986 185.447 C 74.447 185.536,75.113 185.532,75.467 185.440 C 75.821 185.347,75.444 185.274,74.630 185.279 C 73.815 185.283,73.525 185.359,73.986 185.447 M200.652 185.818 C 201.113 185.906,201.780 185.903,202.134 185.810 C 202.488 185.717,202.111 185.645,201.296 185.649 C 200.481 185.653,200.192 185.729,200.652 185.818 M71.953 194.074 C 71.953 194.991,72.025 195.366,72.113 194.907 C 72.202 194.449,72.202 193.699,72.113 193.241 C 72.025 192.782,71.953 193.157,71.953 194.074 M244.167 195.832 C 246.764 195.896,251.014 195.896,253.611 195.832 C 256.208 195.769,254.083 195.717,248.889 195.717 C 243.694 195.717,241.569 195.769,244.167 195.832 M145.648 197.663 C 146.005 197.756,146.588 197.756,146.944 197.663 C 147.301 197.570,147.009 197.493,146.296 197.493 C 145.583 197.493,145.292 197.570,145.648 197.663 M122.316 199.815 C 122.320 200.630,122.396 200.919,122.484 200.459 C 122.573 199.998,122.569 199.331,122.477 198.977 C 122.384 198.623,122.312 199.000,122.316 199.815 M281.582 200.000 C 281.582 200.917,281.655 201.292,281.743 200.833 C 281.831 200.375,281.831 199.625,281.743 199.167 C 281.655 198.708,281.582 199.083,281.582 200.000 M332.357 204.259 C 332.358 206.296,332.421 207.082,332.496 206.006 C 332.571 204.930,332.570 203.263,332.494 202.302 C 332.418 201.342,332.357 202.222,332.357 204.259 M140.086 204.074 C 140.086 204.787,140.162 205.079,140.255 204.722 C 140.348 204.366,140.348 203.782,140.255 203.426 C 140.162 203.069,140.086 203.361,140.086 204.074 M281.587 208.333 C 281.590 209.352,281.662 209.725,281.747 209.162 C 281.832 208.599,281.830 207.765,281.742 207.310 C 281.654 206.854,281.585 207.315,281.587 208.333 M122.308 210.000 C 122.308 210.713,122.384 211.005,122.478 210.648 C 122.571 210.292,122.571 209.708,122.478 209.352 C 122.384 208.995,122.308 209.287,122.308 210.000 M71.976 212.963 C 71.976 214.491,72.042 215.116,72.122 214.352 C 72.202 213.588,72.202 212.338,72.122 211.574 C 72.042 210.810,71.976 211.435,71.976 212.963 M72.363 219.074 L 72.407 220.556 74.074 220.586 L 75.741 220.616 74.188 220.474 C 72.705 220.338,72.628 220.270,72.477 218.962 L 72.319 217.593 72.363 219.074 M200.288 231.383 C 201.159 231.461,202.492 231.460,203.251 231.380 C 204.009 231.301,203.296 231.237,201.667 231.238 C 200.037 231.239,199.416 231.305,200.288 231.383 M244.352 239.536 C 246.644 239.601,250.394 239.601,252.685 239.536 C 254.977 239.471,253.102 239.418,248.519 239.418 C 243.935 239.418,242.060 239.471,244.352 239.536 M259.057 260.833 L 257.593 262.407 259.167 260.943 C 260.631 259.582,260.911 259.259,260.631 259.259 C 260.570 259.259,259.862 259.968,259.057 260.833 M146.481 263.704 C 147.277 264.519,148.011 265.185,148.113 265.185 C 148.215 265.185,147.647 264.519,146.852 263.704 C 146.056 262.889,145.322 262.222,145.220 262.222 C 145.118 262.222,145.686 262.889,146.481 263.704 M181.481 263.230 C 181.991 263.321,182.566 263.549,182.759 263.735 C 182.953 263.922,183.286 264.069,183.500 264.062 C 183.714 264.056,183.565 263.806,183.170 263.507 C 182.775 263.208,182.025 262.986,181.503 263.013 L 180.556 263.064 181.481 263.230 M178.861 264.352 L 177.963 265.370 179.074 264.444 C 179.685 263.935,180.255 263.477,180.340 263.426 C 180.424 263.375,180.328 263.333,180.126 263.333 C 179.924 263.333,179.355 263.792,178.861 264.352 M184.330 264.789 C 184.433 265.183,184.752 265.594,185.038 265.704 C 185.445 265.860,185.428 265.705,184.959 264.989 C 184.237 263.888,184.082 263.838,184.330 264.789 M278.889 280.879 C 277.361 282.290,274.274 285.556,274.468 285.556 C 274.567 285.556,275.890 284.306,277.407 282.778 C 280.020 280.148,280.896 279.025,278.889 280.879 M125.370 282.222 C 126.374 283.241,127.278 284.074,127.380 284.074 C 127.481 284.074,126.744 283.241,125.741 282.222 C 124.738 281.204,123.833 280.370,123.732 280.370 C 123.630 280.370,124.367 281.204,125.370 282.222 M191.296 286.248 C 191.704 286.427,193.120 286.690,194.444 286.832 C 195.769 286.974,197.185 287.170,197.593 287.267 C 198.168 287.403,198.209 287.366,197.778 287.100 C 197.472 286.911,196.222 286.647,195.000 286.512 C 193.778 286.377,192.278 286.189,191.667 286.094 C 190.799 285.960,190.718 285.994,191.296 286.248 M207.037 286.870 L 205.000 287.361 207.407 287.223 C 208.731 287.147,209.866 287.074,209.929 287.061 C 210.166 287.012,209.575 286.298,209.330 286.338 C 209.189 286.361,208.157 286.600,207.037 286.870 M202.130 287.298 C 202.588 287.387,203.338 287.387,203.796 287.298 C 204.255 287.210,203.880 287.138,202.963 287.138 C 202.046 287.138,201.671 287.210,202.130 287.298 M135.926 297.920 C 135.926 298.202,136.275 298.523,136.701 298.635 C 137.444 298.829,137.449 298.808,136.829 298.122 C 136.059 297.272,135.926 297.242,135.926 297.920 M137.651 299.425 C 137.514 299.784,137.851 300.089,138.691 300.366 C 139.375 300.592,140.022 301.004,140.129 301.283 C 140.315 301.768,141.403 302.471,143.292 303.324 C 144.914 304.058,144.527 303.413,142.714 302.361 C 141.731 301.791,140.759 301.135,140.556 300.905 C 139.538 299.752,137.855 298.895,137.651 299.425 M285.717 304.167 L 284.630 305.370 285.833 304.283 C 286.955 303.269,287.207 302.963,286.921 302.963 C 286.857 302.963,286.316 303.505,285.717 304.167 M150.494 307.254 C 150.494 307.542,150.571 307.700,150.666 307.606 C 150.761 307.511,151.150 307.600,151.530 307.804 C 152.511 308.329,152.390 307.973,151.358 307.297 C 150.633 306.822,150.494 306.815,150.494 307.254 M153.095 308.704 C 153.401 309.009,153.861 309.259,154.118 309.259 C 154.381 309.259,154.271 309.021,153.867 308.715 C 152.924 308.002,152.385 307.994,153.095 308.704 M248.467 309.280 C 247.639 310.002,247.635 310.021,248.405 309.649 C 248.852 309.432,249.320 309.090,249.446 308.887 C 249.810 308.298,249.411 308.458,248.467 309.280 M154.947 310.152 C 154.976 310.640,155.125 310.963,155.278 310.869 C 155.662 310.632,155.627 309.717,155.225 309.469 C 155.042 309.356,154.917 309.664,154.947 310.152 M198.258 314.720 C 199.846 314.790,202.346 314.789,203.813 314.719 C 205.281 314.649,203.981 314.592,200.926 314.593 C 197.870 314.593,196.670 314.650,198.258 314.720 M219.153 318.760 C 219.906 318.922,219.982 319.188,220.101 322.062 L 220.231 325.187 220.208 321.945 C 220.186 318.757,220.170 318.703,219.259 318.643 C 218.471 318.591,218.455 318.609,219.153 318.760 M183.333 319.978 C 183.333 320.601,183.397 321.111,183.475 321.111 C 183.790 321.111,183.952 319.228,183.654 319.043 C 183.478 318.934,183.333 319.355,183.333 319.978 M190.443 319.737 C 191.925 320.092,211.447 320.056,212.087 319.698 C 212.336 319.559,207.293 319.444,200.880 319.444 C 194.383 319.444,189.762 319.574,190.443 319.737 M219.567 329.167 C 219.500 330.542,219.541 332.667,219.660 333.889 C 219.819 335.533,219.892 334.884,219.938 331.389 C 220.004 326.371,219.773 324.986,219.567 329.167 M183.846 331.481 C 183.846 334.028,183.906 335.069,183.978 333.796 C 184.050 332.523,184.050 330.440,183.978 329.167 C 183.906 327.894,183.846 328.935,183.846 331.481 M191.204 337.292 C 191.560 337.386,192.144 337.386,192.500 337.292 C 192.856 337.199,192.565 337.123,191.852 337.123 C 191.139 337.123,190.847 337.199,191.204 337.292 M210.833 337.292 C 211.190 337.386,211.773 337.386,212.130 337.292 C 212.486 337.199,212.194 337.123,211.481 337.123 C 210.769 337.123,210.477 337.199,210.833 337.292 M199.167 337.682 C 200.440 337.754,202.523 337.754,203.796 337.682 C 205.069 337.609,204.028 337.550,201.481 337.550 C 198.935 337.550,197.894 337.609,199.167 337.682 " stroke="none" fill="#e87014" fill-rule="evenodd"></path></g></svg>